<?xml version="1.0" encoding="UTF-8"?>
<svg id="Layer_1" data-name="Layer 1" xmlns="http://www.w3.org/2000/svg" viewBox="0 0 595.28 247.28">
  <defs>
    <style>
      .cls-1, .cls-2, .cls-3, .cls-4, .cls-5 {
        stroke: #231f20;
      }

      .cls-1, .cls-2, .cls-3, .cls-4, .cls-5, .cls-6 {
        stroke-miterlimit: 10;
      }

      .cls-1, .cls-4 {
        stroke-width: 1.06px;
      }

      .cls-2, .cls-7, .cls-4 {
        fill: #fff;
      }

      .cls-2, .cls-3 {
        stroke-width: .51px;
      }

      .cls-5 {
        fill: #231f20;
        stroke-width: 3.37px;
      }

      .cls-6 {
        fill: none;
        stroke: #000;
        stroke-width: 7px;
      }
    </style>
  </defs>
  <circle class="cls-6" cx="356.9" cy="72.79" r="32.44"/>
  <path d="m358.96,104.12h-4.11c-.42-.05-.83-.1-1.25-.15-4.01-.53-7.84-1.59-11.39-3.64-5.54-3.2-9.93-7.44-12.82-13.2-1.89-3.76-3.03-7.7-3.37-11.89-.41-5.13.44-10.05,2.38-14.78,2.13-5.18,5.6-9.37,9.96-12.78,4.05-3.17,8.72-5.06,13.81-5.84.89-.14,1.79-.24,2.68-.36,1.37,0,2.74,0,4.11,0,.57.08,1.15.16,1.72.24,5.77.77,10.96,2.84,15.48,6.59,4.42,3.68,7.83,8.06,9.73,13.51.7,2.01,1.13,4.11,1.62,6.18.21.88.25,1.79.37,2.68v4.24c-.08.58-.17,1.15-.23,1.73-.44,4.02-1.73,7.78-3.63,11.31-3.07,5.72-7.7,9.87-13.35,12.92-2.82,1.52-5.87,2.41-9.03,2.89-.89.14-1.79.24-2.68.36Zm-22.66-40.07c.19.11.36.2.53.3,2.65,1.46,5.46,2.56,8.32,3.54.42.14.67.07,1-.23,2.92-2.62,5.74-5.37,8.83-7.78,5.7-4.44,12.03-7.76,19.01-9.78.14-.04.28-.1.53-.19-1.28-.88-2.43-1.77-3.67-2.5-1.05-.62-2.2-1.09-3.32-1.58-.29-.13-.68-.17-.99-.1-2.82.6-5.59,1.35-8.29,2.42-8.63,3.44-15.77,8.89-21.92,15.76-.01.01-.01.04-.05.13Zm31.15,35.59c.15-.05.26-.08.37-.12,2.61-1.07,5-2.51,7.18-4.29.19-.15.34-.4.42-.63.9-2.51,1.56-5.08,1.92-7.72.37-2.73.56-5.47.28-8.21-.27-2.62-.57-5.25-1.01-7.85-.51-3.01-1.2-5.99-1.81-8.97-.09,0-.14-.01-.17,0-2.48,1.33-4.97,2.65-7.44,4-.14.07-.22.45-.17.64,1.18,4.53,1.96,9.13,2.24,13.81.32,5.2.07,10.36-.96,15.48-.26,1.28-.57,2.54-.86,3.86Zm-2.49-32.16l-.27-.11c-1.89,1.63-3.75,3.29-5.68,4.88-.77.64-.96,1.34-.91,2.3.29,4.88.41,9.76,0,14.64-.27,3.27-.81,6.47-1.79,9.6-.3.97-.62,1.94-.93,2.9.1.04.13.06.17.07,3,.15,5.95-.2,8.85-.97.14-.04.3-.2.34-.34,1.43-4.69,2.17-9.5,2.31-14.4.11-3.92-.14-7.83-.77-11.7-.37-2.3-.88-4.58-1.33-6.87Zm-9.96,27.12c.67-3.12.89-6.15,1-9.19,0-.15-.23-.4-.39-.45-1.67-.51-3.37-.95-5.03-1.47-5.77-1.8-11.29-4.14-16.28-7.61-.68-.47-1.37-.94-1.99-1.47-1.32-1.13-2.6-2.31-3.97-3.53-.03.27-.06.46-.07.65-.12,2.33.07,4.64.52,6.92.13.64.19,1.4.57,1.88,2.43,3.05,5.35,5.59,8.54,7.79,4.01,2.76,8.5,4.46,13.21,5.6,1.29.31,2.58.6,3.9.91Zm1.05-11.95c0-.28,0-.48,0-.68-.08-2.6-.17-5.21-.23-7.81,0-.47-.17-.65-.61-.78-3.16-.94-6.32-1.88-9.46-2.87-4.27-1.34-8.43-2.96-12.21-5.42-1.18-.77-2.31-1.6-3.6-2.5-.42,1.68-.85,3.31-1.23,4.95-.04.17.13.45.28.61,2.24,2.48,4.84,4.57,7.58,6.43,5.91,4,12.58,6.23,19.48,8.07Zm-7.81-13.91c.12.1.16.15.22.16,2.61.8,5.23,1.6,7.85,2.38.16.05.42-.05.55-.17.95-.84,1.87-1.72,2.82-2.56,3.37-3,7.18-5.38,11.11-7.55,2.84-1.57,5.88-2.71,8.98-3.66.37-.11.74-.25,1.26-.44-1.13-1.38-2.14-2.68-3.23-3.93-1.07-1.22-1.1-1.19-2.7-.78-.19.05-.39.1-.58.15-6.47,1.93-12.39,4.93-17.71,9.1-1.52,1.19-3.06,2.38-4.53,3.63-1.38,1.17-2.69,2.42-4.05,3.66Zm-14.1-5.93c7.81-8.65,16.8-15.25,28.06-18.52-14.07-2.74-26.46,5.58-31.16,16.02,1.02.82,2.05,1.65,3.1,2.5Zm42.79-2.08c.13.65.24,1.2.36,1.75,1.1,5.28,2.32,10.55,2.64,15.96.24,3.95,0,7.86-.85,11.73-.07.33-.13.67-.2,1.01,4.33-5.29,6.57-11.33,6.67-18.13.08-4.97-1.14-9.63-3.41-14.07-1.77.59-3.46,1.16-5.22,1.74Zm-45.51,25.27c.34.65.65,1.33,1.03,1.95,3.64,5.88,8.73,9.95,15.25,12.2,1.49.51,3.03.86,4.55,1.26.29.08.65.23.82-.29.45-1.41.95-2.81,1.44-4.27-8.64-1.72-16.61-4.68-23.1-10.84Z"/>
  <g>
    <circle class="cls-6" cx="105.61" cy="81.78" r="31.4"/>
    <g>
      <path class="cls-1" d="m105.6,53.09c15.89,0,28.54,12.83,28.69,28.41.15,15.89-12.71,29.09-28.93,28.96-15.89-.13-28.49-13.09-28.44-28.77.05-15.79,12.9-28.62,28.67-28.6Zm-10.32,28.37c.03,2.12.07,4.07.09,6.02,0,.17.05.27.2.36,3.26,1.88,6.52,3.77,9.78,5.65.1.06.28.06.38.01,3.54-1.78,7-3.71,10.34-5.84.08-.05.16-.18.16-.28.02-.59.03-1.18.03-1.77.02-3.17.03-6.33.05-9.5,0-.17-.05-.27-.2-.36-3.42-1.96-6.84-3.92-10.26-5.89-.18-.1-.31-.09-.48,0-.66.39-1.33.77-2,1.15-2.55,1.46-5.1,2.92-7.65,4.38-.13.07-.24.13-.25.33-.06,1.96-.14,3.92-.2,5.72Zm10.91-20.36c-.03-.14.11-.36-.16-.49-1.02-.5-2.01-1.07-3.04-1.53-1.97-.88-4.08-1.25-6.2-1.58-.17-.03-.37.01-.53.08-2.09.88-4,2.05-5.91,3.26-.77.49-1.35,1.03-1.53,1.95-.02.12-.08.23-.12.34-1,2.67-1.5,5.42-1.38,8.27,0,.19.04.3.23.39,2.48,1.03,4.95,2.08,7.42,3.11.1.04.26.02.36-.03.3-.15.59-.33.88-.5,2.94-1.68,5.88-3.36,8.82-5.06.13-.07.28-.22.31-.35.42-2.59.74-5.18.86-7.85Zm-18.88,32.02s-.01,0-.02,0c.11,1.15.19,2.3.35,3.44.24,1.77.84,3.44,1.51,5.08.05.12.15.24.26.31,2.22,1.46,4.55,2.74,6.94,3.89.13.06.31.07.46.04,3.21-.57,6.24-1.68,9.19-3.04.16-.08.22-.17.2-.34-.06-.94-.1-1.88-.17-2.81-.13-1.77-.34-3.53-.74-5.26-.03-.12-.12-.26-.23-.32-3.27-1.9-6.54-3.8-9.82-5.68-.08-.05-.22-.07-.3-.03-2.49,1.09-4.98,2.2-7.46,3.31-.08.04-.17.17-.17.27-.02.38,0,.77,0,1.15Zm29.67-11.39h-.06c0,1.87,0,3.74,0,5.61,0,.13.06.31.16.38,2.15,1.61,4.31,3.2,6.47,4.8.14.1.24.1.37,0,.73-.5,1.47-.97,2.19-1.48,2.08-1.46,3.75-3.35,5.34-5.3.07-.08.09-.22.1-.34.04-.62.07-1.24.09-1.86.08-1.91.02-3.81-.13-5.71,0-.11-.04-.23-.1-.31-.81-1.1-1.66-2.16-2.65-3.1-1.41-1.36-3.05-2.39-4.71-3.41-.17-.11-.28-.02-.4.06-2.23,1.43-4.37,2.99-6.47,4.6-.16.12-.21.25-.21.45,0,1.87,0,3.74,0,5.61Zm-19.93,24.81c.11.62.22,1.2.31,1.78.03.18.1.27.28.32,2.4.71,4.85,1.09,7.35,1.15,4.48.09,8.74-.82,12.78-2.76.58-.28,1.14-.59,1.71-.89-.02-.07-.03-.1-.04-.12-.54-.9-1.08-1.8-1.62-2.71-.09-.15-.18-.14-.33-.13-1.62.14-3.23.32-4.86.4-1.94.1-3.87-.1-5.79-.27-.15-.01-.32.03-.45.09-2.41,1.1-4.86,2.09-7.44,2.71-.64.15-1.28.29-1.91.43Zm-19.44-24.58c0,.14,0,.23,0,.31.1,1.25.14,2.51.32,3.76.43,2.98,1.36,5.8,2.73,8.48,1.47,2.87,3.38,5.41,5.71,7.63.13.13.24.15.42.1.5-.16,1.01-.3,1.51-.44.05-.01.09-.05.08-.04-.4-1.3-.84-2.56-1.16-3.85-.49-1.91-.53-3.88-.57-5.84,0-.23-.06-.41-.2-.59-1.01-1.32-1.98-2.67-2.8-4.12-.93-1.66-1.64-3.41-2.36-5.17-.07-.17-.15-.25-.34-.24-.66.02-1.31.02-1.97.02-.45,0-.9,0-1.37,0Zm-.02-.64c.13,0,.19,0,.25,0,1.02-.01,2.05-.04,3.07-.04.23,0,.34-.07.43-.29.57-1.44,1.16-2.88,1.98-4.19,1.03-1.65,2.12-3.25,3.18-4.88.09-.13.14-.31.14-.46.05-1.14.04-2.29.14-3.43.14-1.62.6-3.16,1.13-4.69.18-.53.37-1.06.55-1.57-.58-.23-1.14-.45-1.75-.69-5.79,5.47-8.86,12.2-9.13,20.25Zm19.56-24.46c.09.02.19.05.29.06,3.2.45,6.2,1.44,8.97,3.13.12.07.28.1.42.1,1.38-.09,2.75-.21,4.13-.27,2.18-.09,4.33.17,6.48.46.21.03.3-.04.4-.2.5-.84,1.02-1.67,1.52-2.5.04-.06.07-.13.11-.21-.1-.06-.19-.12-.28-.16-.85-.42-1.69-.87-2.55-1.24-3.17-1.38-6.49-2.1-9.93-2.24-1.74-.07-3.48,0-5.19.29-1.29.22-2.56.55-3.84.84-.09.02-.22.13-.23.22-.11.56-.19,1.13-.28,1.73Zm34.56,29.67c-.06.06-.12.12-.17.19-2.08,2.6-4.54,4.77-7.4,6.47-.11.07-.2.19-.26.31-.37.81-.72,1.63-1.11,2.43-.73,1.53-1.49,3.03-2.52,4.39-.63.84-1.27,1.68-1.91,2.53.58.97,1.16,1.94,1.75,2.91.1-.06.18-.1.25-.14,3.13-1.95,5.79-4.41,7.96-7.39,2.25-3.1,3.81-6.52,4.65-10.26.02-.1.01-.26-.05-.32-.38-.38-.77-.74-1.18-1.12Zm.1-9.65c.36-.33.71-.63,1.05-.96.07-.07.12-.22.09-.31-.25-.95-.48-1.91-.8-2.84-1.98-5.75-5.46-10.37-10.4-13.9-.54-.38-1.1-.73-1.67-1.11-.59.96-1.15,1.88-1.7,2.81-.04.06.02.22.08.3.84,1.15,1.77,2.25,2.5,3.46,1.02,1.68,1.92,3.44,2.82,5.19.29.57.66.97,1.21,1.29,2.01,1.19,3.89,2.55,5.42,4.36.47.56.93,1.13,1.4,1.7Z"/>
      <path class="cls-4" d="m95.27,81.46c.06-1.8.14-3.76.2-5.72,0-.2.12-.25.25-.33,2.55-1.46,5.1-2.92,7.65-4.38.67-.38,1.34-.76,2-1.15.17-.1.3-.11.48,0,3.42,1.97,6.84,3.93,10.26,5.89.15.09.2.18.2.36-.02,3.17-.03,6.33-.05,9.5,0,.59,0,1.18-.03,1.77,0,.1-.08.23-.16.28-3.35,2.13-6.8,4.06-10.34,5.84-.1.05-.28.04-.38-.01-3.26-1.88-6.52-3.77-9.78-5.65-.15-.09-.2-.19-.2-.36-.03-1.95-.06-3.91-.09-6.02Z"/>
      <path class="cls-7" d="m106.18,61.1c-.12,2.66-.44,5.26-.86,7.85-.02.13-.18.28-.31.35-2.94,1.69-5.88,3.37-8.82,5.06-.29.17-.58.35-.88.5-.1.05-.26.07-.36.03-2.48-1.03-4.95-2.07-7.42-3.11-.19-.08-.22-.2-.23-.39-.12-2.86.38-5.61,1.38-8.27.04-.11.1-.23.12-.34.18-.91.76-1.46,1.53-1.95,1.91-1.21,3.82-2.38,5.91-3.26.16-.07.36-.11.53-.08,2.12.33,4.23.7,6.2,1.58,1.03.46,2.02,1.03,3.04,1.53.27.13.14.35.16.49Z"/>
      <path class="cls-4" d="m87.3,93.12c0-.38-.01-.77,0-1.15,0-.09.09-.23.17-.27,2.48-1.11,4.97-2.21,7.46-3.31.08-.04.22-.02.3.03,3.28,1.89,6.55,3.78,9.82,5.68.1.06.2.2.23.32.4,1.73.61,3.49.74,5.26.07.94.11,1.87.17,2.81.01.17-.04.27-.2.34-2.95,1.36-5.98,2.47-9.19,3.04-.15.03-.33.02-.46-.04-2.39-1.15-4.72-2.43-6.94-3.89-.11-.07-.21-.19-.26-.31-.67-1.64-1.28-3.31-1.51-5.08-.15-1.14-.23-2.3-.35-3.44,0,0,.01,0,.02,0Z"/>
      <path class="cls-4" d="m116.97,81.73c0-1.87,0-3.74,0-5.61,0-.2.05-.33.21-.45,2.1-1.61,4.24-3.17,6.47-4.6.13-.08.23-.16.4-.06,1.66,1.01,3.3,2.05,4.71,3.41.99.95,1.84,2.01,2.65,3.1.06.08.1.2.1.31.15,1.9.21,3.81.13,5.71-.02.62-.06,1.24-.09,1.86,0,.11-.03.25-.1.34-1.6,1.95-3.27,3.83-5.34,5.3-.72.51-1.46.98-2.19,1.48-.14.09-.24.09-.37,0-2.16-1.6-4.32-3.19-6.47-4.8-.1-.07-.16-.25-.16-.38-.01-1.87,0-3.74,0-5.61h.06Z"/>
      <path class="cls-4" d="m97.04,106.54c.63-.14,1.27-.28,1.91-.43,2.59-.62,5.03-1.61,7.44-2.71.14-.06.3-.1.45-.09,1.93.17,3.86.37,5.79.27,1.62-.09,3.24-.26,4.86-.4.14-.01.24-.02.33.13.53.91,1.08,1.81,1.62,2.71.01.02.02.05.04.12-.57.29-1.13.61-1.71.89-4.04,1.94-8.31,2.86-12.78,2.76-2.5-.05-4.95-.43-7.35-1.15-.18-.05-.25-.14-.28-.32-.09-.58-.2-1.16-.31-1.78Z"/>
      <path class="cls-4" d="m77.6,81.96c.47,0,.92,0,1.37,0,.66,0,1.32,0,1.97-.02.2,0,.27.07.34.24.71,1.76,1.43,3.51,2.36,5.17.81,1.46,1.79,2.8,2.8,4.12.14.18.19.37.2.59.04,1.96.09,3.93.57,5.84.33,1.29.77,2.55,1.16,3.85.01,0-.03.02-.08.04-.5.15-1.01.28-1.51.44-.18.06-.29.03-.42-.1-2.33-2.22-4.24-4.76-5.71-7.63-1.37-2.68-2.3-5.5-2.73-8.48-.18-1.24-.22-2.5-.32-3.76,0-.08,0-.17,0-.31Z"/>
      <path class="cls-4" d="m77.58,81.32c.27-8.05,3.33-14.78,9.13-20.25.61.24,1.17.46,1.75.69-.18.52-.37,1.04-.55,1.57-.53,1.53-.99,3.08-1.13,4.69-.1,1.14-.09,2.29-.14,3.43,0,.16-.06.33-.14.46-1.06,1.63-2.15,3.24-3.18,4.88-.82,1.32-1.41,2.75-1.98,4.19-.09.22-.2.29-.43.29-1.02,0-2.05.02-3.07.04-.06,0-.13,0-.25,0Z"/>
      <path class="cls-4" d="m97.13,56.86c.1-.6.18-1.17.28-1.73.02-.09.14-.2.23-.22,1.28-.29,2.55-.62,3.84-.84,1.72-.3,3.45-.36,5.19-.29,3.45.14,6.77.86,9.93,2.24.87.38,1.7.83,2.55,1.24.09.04.18.1.28.16-.04.08-.07.15-.11.21-.51.83-1.02,1.66-1.52,2.5-.1.16-.18.23-.4.2-2.15-.29-4.31-.55-6.48-.46-1.38.06-2.75.19-4.13.27-.14,0-.3-.02-.42-.1-2.77-1.68-5.77-2.68-8.97-3.13-.1-.01-.2-.04-.29-.06Z"/>
      <path class="cls-4" d="m131.69,86.53c.41.39.81.74,1.18,1.12.06.06.07.22.05.32-.84,3.74-2.39,7.16-4.65,10.26-2.17,2.99-4.83,5.44-7.96,7.39-.07.04-.14.08-.25.14-.59-.98-1.17-1.95-1.75-2.91.64-.85,1.28-1.69,1.91-2.53,1.03-1.36,1.79-2.86,2.52-4.39.38-.8.73-1.62,1.11-2.43.06-.12.15-.25.26-.31,2.87-1.7,5.32-3.88,7.4-6.47.05-.07.11-.13.17-.19Z"/>
      <path class="cls-4" d="m131.79,76.87c-.47-.57-.93-1.14-1.4-1.7-1.52-1.8-3.41-3.16-5.42-4.36-.55-.32-.92-.73-1.21-1.29-.9-1.75-1.8-3.51-2.82-5.19-.74-1.21-1.67-2.31-2.5-3.46-.06-.08-.12-.24-.08-.3.55-.93,1.12-1.85,1.7-2.81.57.38,1.13.72,1.67,1.11,4.94,3.53,8.43,8.15,10.4,13.9.32.93.54,1.89.8,2.84.02.09-.02.24-.09.31-.34.33-.69.64-1.05.96Z"/>
    </g>
  </g>
  <g>
    <g>
      <path class="cls-3" d="m429.47,164.65c-.11,16.57-13.42,29.24-29.46,28.94-15.57-.29-28.49-12.86-28.31-29.17.18-16.03,13.08-28.73,29.21-28.55,16.05.18,28.4,13.08,28.56,28.78Zm-30.23-6.46c-3.22.27-6.24.54-9.26.78-.56.05-.94.3-1.16.8-.2.46-.4.92-.62,1.37-1.05,2.23-2.1,4.45-3.14,6.69-.16.34-.4.67-.09,1.1,1.69,2.36,3.39,4.72,5.03,7.11.48.7.91,1.03,1.86.92,2.9-.35,5.82-.52,8.73-.8.26-.02.61-.22.72-.43,1.4-2.87,2.76-5.76,4.11-8.65.08-.18.06-.5-.05-.67-1.78-2.58-3.58-5.14-5.36-7.72-.26-.38-.53-.56-.78-.5Zm7.75,7.95l.09-.17c2.87-.27,5.74-.52,8.6-.82.24-.03.55-.34.66-.6,1.07-2.54,2.11-5.08,3.13-7.64.07-.16-.01-.45-.12-.6-1.78-2.58-3.58-5.14-5.37-7.71-.2-.29-.4-.39-.77-.37-2.9.17-5.8.32-8.7.45-.43.02-.65.1-.82.54-.97,2.55-1.98,5.09-3,7.63-.17.41-.13.74.13,1.1,1.8,2.54,3.58,5.09,5.39,7.63.18.25.51.38.78.56Zm1.8,16.64c-.05-.06-.09-.12-.14-.15-2.32-1.71-4.63-3.43-6.96-5.12-.19-.14-.51-.18-.76-.16-3.1.26-6.2.57-9.3.81-.61.05-.86.29-1.03.84-.55,1.73-1.16,3.43-1.72,5.16-.05.17.07.47.21.6,1.02.96,2.07,1.88,3.11,2.82,1.01.91,2,1.84,3.03,2.73.17.14.48.24.69.19,1.65-.36,3.29-.76,4.93-1.13,1.48-.34,2.97-.65,4.45-1,.22-.05.49-.21.59-.39.98-1.72,1.93-3.45,2.9-5.19Zm-20.65-24.3c-.07-.32-.11-.61-.18-.89-.55-2.06-1.16-4.1-1.64-6.17-.15-.65-.39-.8-.99-.74-1.64.18-3.28.36-4.93.47-.53.04-.75.27-.96.7-1.59,3.15-3.2,6.29-4.84,9.42-.27.51-.28.92-.04,1.41.48.95.93,1.92,1.38,2.88.57,1.21,1.12,2.42,1.69,3.63.12.26.23.49.65.36,1.54-.46,3.09-.88,4.64-1.27.51-.13.85-.35,1.07-.84,1.32-2.84,2.66-5.67,3.99-8.5.07-.15.11-.31.15-.45Zm27.12,7.93c-2.65.23-5.33.46-8.02.67-.46.04-.7.22-.89.62-1.29,2.8-2.6,5.6-3.92,8.39-.18.38-.02.52.24.7,2.17,1.59,4.34,3.19,6.5,4.8.32.24.5.21.8-.02,2.44-1.86,4.89-3.71,7.36-5.54.36-.27.44-.51.36-.93-.54-2.68-1.08-5.36-1.53-8.05-.11-.64-.31-.79-.89-.65Zm12.92.33c-.05-.23-.11-.69-.27-1.11-.97-2.58-1.96-5.14-2.93-7.71-.14-.36-.34-.49-.74-.51-1.06-.05-2.12-.16-3.18-.28-.36-.04-.54.05-.67.38-1.02,2.56-2.06,5.1-3.06,7.67-.13.33-.18.74-.12,1.09.48,2.73,1.03,5.45,1.48,8.19.12.71.38,1,1.06,1.11,1.83.3,3.65.67,5.48.97.17.03.48-.21.56-.4,1.32-2.91,2.14-5.96,2.38-9.39Zm-27.48-29.52c-1,0-2.01-.03-3.01.02-.22.01-.54.23-.63.44-.66,1.58-1.26,3.18-1.89,4.77-.15.39-.15.62.28.84,2.39,1.24,4.77,2.5,7.15,3.77.75.4,1.52.53,2.36.45,1.02-.1,2.04-.16,3.06-.22,1.59-.09,3.17-.17,4.76-.23.5-.02.81-.14.9-.71.14-.89.39-1.75.55-2.64.04-.22,0-.51-.13-.69-.8-1.15-1.62-2.29-2.47-3.4-.22-.28-.55-.52-.89-.65-3.24-1.18-6.57-1.94-10.05-1.76Zm-10.03,20.49c.38-.03,1.09-.06,1.79-.13,2.23-.2,4.45-.4,6.68-.63.18-.02.44-.18.5-.34.98-2.53,1.93-5.07,2.9-7.61.16-.41.08-.65-.31-.86-2.46-1.29-4.91-2.6-7.38-3.87-.24-.12-.72-.11-.91.06-2.21,1.85-4.39,3.74-6.56,5.64-.14.12-.2.45-.14.65.52,1.98,1.06,3.95,1.61,5.92q.32,1.16,1.83,1.16Zm16.3,30.74c.26.07.41.12.57.16,1.25.34,2.51.64,3.73,1.05.55.18.99.14,1.49-.11,4.1-2.04,7.54-4.85,10.22-8.58.75-1.04,1.41-2.14,2.13-3.24-.21-.09-.3-.15-.4-.16-1.94-.31-3.87-.64-5.82-.91-.3-.04-.7.13-.96.33-2.09,1.54-4.13,3.14-6.23,4.65-1.14.82-2.1,1.75-2.69,3.05-.38.83-.89,1.61-1.33,2.41-.24.43-.46.87-.71,1.36Zm-28.86-13.23c.06,0,.11,0,.17,0,0,1.4-.02,2.8.02,4.2,0,.22.23.54.44.63,2.81,1.24,5.63,2.43,8.44,3.66.49.22.66.1.81-.36.46-1.43.87-2.88,1.44-4.27.41-.99.39-1.77-.41-2.51-.21-.19-.34-.48-.5-.72-1.45-2.07-2.91-4.14-4.35-6.21-.23-.33-.45-.44-.89-.32-1.54.44-3.11.82-4.67,1.19-.39.1-.53.26-.51.68.04,1.34.01,2.68.01,4.01Zm17.72-37.76c-.29.02-.39,0-.49.04-2.51.69-5.03,1.35-7.36,2.58-3.19,1.69-6.02,3.82-8.38,6.56-.52.6-.74,1.15-.32,1.89.17.3.24.67.32,1.01.09.4.28.52.71.47,1.78-.22,3.57-.38,5.35-.6.35-.04.73-.2,1-.42,1.6-1.31,3.1-2.76,4.76-3.98,1.78-1.31,2.96-2.93,3.52-5.05.22-.81.56-1.59.89-2.5Zm19.57,6.35c-.25,1.15-.53,2.32-.76,3.5-.03.17.1.4.22.56,1.77,2.53,3.56,5.05,5.32,7.58.27.38.59.53,1.05.54.85.02,1.71.06,2.56.19.78.12,1.23-.11,1.71-.76.59-.81.62-1.45.2-2.36-1.44-3.11-3.43-5.82-5.84-8.22-.2-.19-.48-.36-.74-.42-1.18-.22-2.38-.4-3.7-.61Zm-36.89,37.47c1.97,4.08,12.31,10.63,16.39,10.39-.23-.26-.41-.51-.64-.72-1.75-1.59-3.49-3.18-5.26-4.73-.61-.53-1.26-1.06-1.98-1.39-2.62-1.18-5.28-2.28-7.93-3.41-.16-.07-.34-.09-.57-.15Zm-5.38-18.84c-.72,5.39,1.51,14.56,3.99,16.76.03-.39.07-.71.06-1.03-.08-2.38-.16-4.76-.27-7.15-.02-.43-.11-.88-.29-1.27-.94-2.07-1.92-4.13-2.89-6.18-.18-.39-.41-.75-.61-1.13Zm22.32,29.35c2.61,1.23,13.04.24,14.54-1.33-1.12-.31-2.21-.64-3.32-.9-.41-.1-.89-.14-1.3-.04-3.27.73-6.53,1.49-9.92,2.28Zm-17.37-43.03c-.08-.01-.16-.03-.24-.04-.7,1.25-1.44,2.48-2.1,3.75-1.29,2.48-2.06,5.14-2.55,7.88-.06.32.03.66.04,1,.06,0,.13.01.19.02.13-.3.24-.6.38-.88,1.51-3.02,2.96-6.07,4.57-9.03.6-1.11-.04-1.81-.3-2.68Zm48.83,6.88c-.86.71-1.13,1.32-.93,1.83.44,1.17.87,2.34,1.33,3.5.2.52.47,1.01.7,1.52.1-.03.2-.06.3-.1-.46-2.21-.92-4.41-1.4-6.76Zm-9.48-12.88c-1.11-.87-2.23-1.6-3.47-2.15.8,1.87,2.06,2.65,3.47,2.15Z"/>
      <path class="cls-2" d="m399.24,158.19c.24-.06.51.12.78.5,1.77,2.58,3.58,5.14,5.36,7.72.11.16.14.49.05.67-1.35,2.89-2.71,5.78-4.11,8.65-.1.22-.46.41-.72.43-2.91.27-5.83.45-8.73.8-.95.11-1.38-.22-1.86-.92-1.64-2.4-3.33-4.76-5.03-7.11-.31-.43-.07-.76.09-1.1,1.03-2.23,2.09-4.46,3.14-6.69.21-.45.41-.91.62-1.37.22-.51.61-.76,1.16-.8,3.02-.25,6.03-.51,9.26-.78Z"/>
      <path class="cls-2" d="m406.99,166.13c-.26-.18-.6-.32-.78-.56-1.81-2.53-3.58-5.09-5.39-7.63-.26-.37-.29-.69-.13-1.1,1.01-2.54,2.02-5.08,3-7.63.17-.44.4-.53.82-.54,2.9-.13,5.8-.28,8.7-.45.37-.02.57.08.77.37,1.79,2.57,3.59,5.14,5.37,7.71.11.16.19.44.12.6-1.02,2.55-2.06,5.1-3.13,7.64-.11.25-.42.57-.66.6-2.87.3-5.74.55-8.6.82l-.09.17Z"/>
      <path class="cls-2" d="m408.8,182.78c-.96,1.73-1.91,3.47-2.9,5.19-.11.19-.37.34-.59.39-1.48.35-2.97.66-4.45,1-1.65.38-3.29.78-4.93,1.13-.21.05-.53-.05-.69-.19-1.02-.89-2.02-1.82-3.03-2.73-1.04-.94-2.09-1.87-3.11-2.82-.14-.13-.26-.44-.21-.6.56-1.73,1.17-3.43,1.72-5.16.18-.55.42-.79,1.03-.84,3.1-.24,6.2-.55,9.3-.81.25-.02.57.02.76.16,2.33,1.69,4.65,3.41,6.96,5.12.05.04.08.09.14.15Z"/>
      <path class="cls-2" d="m388.15,158.48c-.05.14-.08.3-.15.45-1.33,2.83-2.67,5.66-3.99,8.5-.23.48-.56.71-1.07.84-1.56.39-3.11.81-4.64,1.27-.42.13-.53-.1-.65-.36-.57-1.21-1.12-2.42-1.69-3.63-.45-.96-.9-1.93-1.38-2.88-.24-.49-.23-.9.04-1.41,1.64-3.12,3.25-6.27,4.84-9.42.22-.43.43-.66.96-.7,1.65-.11,3.29-.29,4.93-.47.59-.07.84.08.99.74.48,2.07,1.09,4.11,1.64,6.17.08.28.12.57.18.89Z"/>
      <path class="cls-2" d="m415.27,166.41c.58-.14.79,0,.89.65.45,2.69.99,5.37,1.53,8.05.09.43,0,.66-.36.93-2.47,1.83-4.92,3.68-7.36,5.54-.3.23-.48.26-.8.02-2.15-1.62-4.33-3.21-6.5-4.8-.25-.19-.42-.32-.24-.7,1.33-2.79,2.63-5.59,3.92-8.39.19-.41.43-.59.89-.62,2.68-.21,5.37-.45,8.02-.67Z"/>
      <path class="cls-2" d="m428.19,166.74c-.24,3.43-1.06,6.47-2.38,9.39-.09.19-.4.43-.56.4-1.83-.3-3.65-.67-5.48-.97-.68-.11-.95-.41-1.06-1.11-.45-2.74-1-5.46-1.48-8.19-.06-.35,0-.76.12-1.09,1-2.56,2.04-5.11,3.06-7.67.13-.33.31-.42.67-.38,1.06.12,2.12.23,3.18.28.4.02.6.15.74.51.97,2.57,1.97,5.14,2.93,7.71.16.42.22.88.27,1.11Z"/>
      <path class="cls-2" d="m400.71,137.22c3.48-.18,6.8.58,10.05,1.76.33.12.67.37.89.65.85,1.11,1.67,2.25,2.47,3.4.12.18.17.47.13.69-.16.88-.41,1.75-.55,2.64-.09.57-.4.69-.9.71-1.59.06-3.17.14-4.76.23-1.02.06-2.04.12-3.06.22-.84.08-1.61-.05-2.36-.45-2.37-1.28-4.75-2.54-7.15-3.77-.43-.22-.44-.45-.28-.84.64-1.59,1.24-3.19,1.89-4.77.08-.2.41-.43.63-.44,1-.05,2.01-.02,3.01-.02Z"/>
      <path class="cls-2" d="m390.68,157.72q-1.51,0-1.83-1.16c-.54-1.97-1.09-3.94-1.61-5.92-.05-.19,0-.53.14-.65,2.17-1.9,4.35-3.79,6.56-5.64.19-.16.67-.18.91-.06,2.47,1.27,4.92,2.58,7.38,3.87.39.2.46.45.31.86-.97,2.53-1.92,5.08-2.9,7.61-.06.16-.32.32-.5.34-2.22.22-4.45.43-6.68.63-.71.06-1.42.1-1.79.13Z"/>
      <path class="cls-2" d="m406.98,188.46c.26-.49.48-.93.71-1.36.44-.8.95-1.58,1.33-2.41.59-1.3,1.55-2.23,2.69-3.05,2.1-1.51,4.14-3.11,6.23-4.65.26-.19.66-.37.96-.33,1.94.27,3.88.6,5.82.91.1.02.19.08.4.16-.72,1.1-1.38,2.2-2.13,3.24-2.68,3.72-6.13,6.54-10.22,8.58-.5.25-.94.29-1.49.11-1.23-.4-2.49-.7-3.73-1.05-.15-.04-.31-.09-.57-.16Z"/>
      <path class="cls-2" d="m378.12,175.23c0-1.34.02-2.68-.01-4.01-.01-.42.12-.59.51-.68,1.56-.38,3.12-.76,4.67-1.19.44-.12.66-.01.89.32,1.45,2.07,2.9,4.14,4.35,6.21.17.24.29.52.5.72.8.74.82,1.52.41,2.51-.57,1.38-.98,2.84-1.44,4.27-.15.45-.32.58-.81.36-2.81-1.24-5.63-2.43-8.44-3.66-.21-.09-.43-.41-.44-.63-.04-1.4-.02-2.8-.02-4.2-.06,0-.11,0-.17,0Z"/>
      <path class="cls-2" d="m395.83,137.47c-.33.91-.67,1.68-.89,2.5-.56,2.12-1.75,3.74-3.52,5.05-1.66,1.22-3.16,2.66-4.76,3.98-.27.22-.65.37-1,.42-1.78.22-3.57.38-5.35.6-.43.05-.62-.06-.71-.47-.08-.34-.14-.71-.32-1.01-.43-.74-.2-1.29.32-1.89,2.37-2.74,5.19-4.87,8.38-6.56,2.33-1.23,4.85-1.89,7.36-2.58.1-.03.2-.02.49-.04Z"/>
      <path class="cls-2" d="m415.41,143.82c1.33.21,2.52.39,3.7.61.27.05.55.22.74.42,2.41,2.41,4.4,5.11,5.84,8.22.42.91.4,1.55-.2,2.36-.48.65-.93.88-1.71.76-.84-.13-1.7-.16-2.56-.19-.46-.01-.78-.16-1.05-.54-1.77-2.53-3.55-5.05-5.32-7.58-.11-.16-.25-.39-.22-.56.23-1.18.51-2.35.76-3.5Z"/>
      <path class="cls-2" d="m378.52,181.29c.23.06.41.08.57.15,2.65,1.12,5.31,2.22,7.93,3.41.72.33,1.38.86,1.98,1.39,1.78,1.55,3.52,3.15,5.26,4.73.23.21.41.46.64.72-4.08.24-14.41-6.31-16.39-10.39Z"/>
      <path class="cls-2" d="m373.14,162.45c.2.38.43.74.61,1.13.97,2.06,1.95,4.11,2.89,6.18.18.39.27.84.29,1.27.11,2.38.19,4.76.27,7.15.01.32-.04.65-.06,1.03-2.49-2.2-4.71-11.36-3.99-16.76Z"/>
      <path class="cls-2" d="m395.46,191.79c3.39-.78,6.65-1.55,9.92-2.28.41-.09.88-.05,1.3.04,1.11.26,2.2.59,3.32.9-1.5,1.57-11.93,2.56-14.54,1.33Z"/>
      <path class="cls-2" d="m378.08,148.77c.25.87.9,1.57.3,2.68-1.61,2.96-3.06,6.02-4.57,9.03-.14.29-.25.59-.38.88-.06,0-.13-.01-.19-.02-.02-.33-.1-.68-.04-1,.49-2.74,1.26-5.4,2.55-7.88.66-1.27,1.4-2.5,2.1-3.75.08.01.16.03.24.04Z"/>
      <path class="cls-2" d="m426.91,155.65c.49,2.34.95,4.55,1.4,6.76-.1.03-.2.06-.3.1-.24-.51-.5-1-.7-1.52-.46-1.16-.89-2.33-1.33-3.5-.19-.51.07-1.12.93-1.83Z"/>
      <path class="cls-2" d="m417.43,142.77c-1.41.5-2.67-.28-3.47-2.15,1.24.55,2.35,1.28,3.47,2.15Z"/>
    </g>
    <circle class="cls-6" cx="400.59" cy="164.73" r="31.4"/>
  </g>
  <g>
    <g>
      <path d="m358.61,159.05c.1,15.67-13.22,29.08-29.92,27.99-14.76-.96-26.62-13.65-26.06-28.84.57-15.49,13.48-27.72,28.82-27.14,15.86.6,27.2,13.6,27.16,27.99Zm-18.32.3c.29-1.81.69-3.47.78-5.15.28-5.09,1.65-4.05-3.69-5.08-10.19-1.97-20.26-.6-30.23,1.72-.44.1-.93.74-1.07,1.22-1.33,4.48-1.35,9.01-.17,13.53.33,1.28.85,2.51,1.3,3.82,3.34-1.73,6.38-3.45,9.53-4.92,7.4-3.46,14.84-6.87,23.55-5.13Zm-31.75,12.21c.05.29.03.4.08.47,4.03,6.67,9.9,10.7,17.52,12.23.87.18,1.48-.08,2.1-.76,3.82-4.25,6.9-8.96,9.01-14.27.93-2.34,1.68-4.75,2.53-7.2-2.89-1.12-5.55-.85-8.19-.31-8.33,1.72-15.64,5.84-23.04,9.83Zm32.92-24.14c0-1.86.05-3.64-.04-5.41-.02-.36-.55-.78-.95-1-1.27-.71-2.62-1.29-3.88-2.01-2.62-1.49-5.17-3.09-7.81-4.55-.7-.38-1.65-.65-2.41-.52-6.29,1.06-11.5,4.1-15.55,9.02-1.22,1.48-2.15,3.19-3.22,4.8,11.42-1.99,22.55-3.22,33.86-.33Zm6.66,30.17c.18-.15.4-.31.59-.5,3.67-3.79,6.05-8.24,7.03-13.45.23-1.21.05-2.16-.54-3.2-2.18-3.81-5.28-6.6-9.19-8.53-.65-.32-1.32-.57-1.98-.86-.49,3.11-.97,6.02-1.37,8.95-.04.32.23.81.51,1.02,2.24,1.75,3.52,4.1,3.93,6.82.49,3.19.69,6.43,1.03,9.75Zm-17.61,7c5.44.01,10-1.48,14.18-4.23.28-.19.5-.71.49-1.07-.06-3.33-.04-6.68-.32-9.99-.19-2.25-.97-4.38-2.99-6.04-2.2,7.92-5.74,14.96-11.37,21.32Zm13.51-42.26c0,1.56.07,3.06-.02,4.56-.07,1.06.28,1.58,1.28,1.97,3.64,1.44,6.8,3.62,9.39,6.58.36.41.72.82,1.23,1.4.03-.46.09-.68.06-.89-.62-4.78-2.42-9.06-5.44-12.82-.23-.28-.69-.49-1.05-.52-1.77-.13-3.55-.19-5.44-.29Zm-3.06-3.65c.16-2.97.15-3.03-2.18-3.76-1.3-.41-2.63-.71-3.96-1.02-.44-.1-.91-.05-1.37-.08-.02.11-.04.23-.05.34,2.47,1.48,4.94,2.95,7.56,4.51Zm6.35,1.02c-1.16-.82-2.31-1.65-3.64-2.59,0,2.57.63,3.02,3.64,2.59Z"/>
      <path class="cls-7" d="m340.3,159.35c-8.72-1.74-16.16,1.67-23.55,5.13-3.15,1.47-6.19,3.19-9.53,4.92-.45-1.3-.97-2.53-1.3-3.82-1.18-4.52-1.16-9.04.17-13.53.14-.48.63-1.12,1.07-1.22,9.98-2.32,20.04-3.68,30.23-1.72,5.35,1.03,3.97,0,3.69,5.08-.09,1.68-.5,3.34-.78,5.15Z"/>
      <path class="cls-7" d="m308.55,171.56c7.4-3.99,14.71-8.12,23.04-9.83,2.63-.54,5.3-.81,8.19.31-.85,2.45-1.6,4.86-2.53,7.2-2.11,5.31-5.19,10.02-9.01,14.27-.61.68-1.22.94-2.1.76-7.62-1.53-13.49-5.56-17.52-12.23-.04-.07-.03-.18-.08-.47Z"/>
      <path class="cls-7" d="m341.47,147.41c-11.31-2.89-22.45-1.66-33.86.33,1.06-1.61,2-3.32,3.22-4.8,4.05-4.92,9.26-7.95,15.55-9.02.76-.13,1.71.14,2.41.52,2.64,1.45,5.2,3.05,7.81,4.55,1.26.72,2.61,1.3,3.88,2.01.39.22.93.65.95,1,.1,1.77.04,3.55.04,5.41Z"/>
      <path class="cls-7" d="m348.13,177.59c-.34-3.32-.54-6.56-1.03-9.75-.42-2.72-1.7-5.07-3.93-6.82-.28-.22-.55-.71-.51-1.02.41-2.93.89-5.84,1.37-8.95.65.28,1.33.54,1.98.86,3.91,1.93,7.01,4.72,9.19,8.53.6,1.04.77,1.99.54,3.2-.98,5.21-3.35,9.66-7.03,13.45-.19.19-.41.35-.59.5Z"/>
      <path class="cls-7" d="m330.52,184.58c5.62-6.37,9.16-13.4,11.37-21.32,2.02,1.66,2.8,3.79,2.99,6.04.28,3.32.26,6.66.32,9.99,0,.36-.21.88-.49,1.07-4.18,2.75-8.74,4.24-14.18,4.23Z"/>
      <path class="cls-7" d="m344.02,142.32c1.89.09,3.67.15,5.44.29.37.03.83.24,1.05.52,3.02,3.76,4.82,8.04,5.44,12.82.03.21-.03.43-.06.89-.51-.58-.87-.99-1.23-1.4-2.59-2.96-5.75-5.14-9.39-6.58-1-.4-1.35-.91-1.28-1.97.1-1.5.02-3.01.02-4.56Z"/>
      <path class="cls-7" d="m340.96,138.67c-2.62-1.56-5.09-3.04-7.56-4.51.02-.11.04-.23.05-.34.46.02.93-.03,1.37.08,1.33.31,2.66.61,3.96,1.02,2.33.73,2.34.79,2.18,3.76Z"/>
      <path class="cls-7" d="m347.31,139.69c-3.01.43-3.63-.02-3.64-2.59,1.32.94,2.48,1.77,3.64,2.59Z"/>
    </g>
    <circle class="cls-6" cx="330.61" cy="159.07" r="31.4"/>
  </g>
  <path class="cls-5" d="m52.48,75.55c0-18.81-.24-24.76-.73-26.7-.85-3.4-2.91-4.13-13.35-4.61l-4.85-.24c-.61-1.94-.85-5.7,0-6.92,4.25-.12,16.02-.36,32.16-.36,18.81,0,50.36.24,55.46.36.61,1.58.24,5.58-.12,6.43l-24.39.36c-26.09.36-31.92.85-33.01,4.13-.73,2.18-.85,8.13-.85,15.41,0,33.98.97,50.73.97,50.73-2.67.49-9.59.61-12.02.12,0,0,.73-18.69.73-38.71Z"/>
  <path class="cls-5" d="m182.94,77.98c4.49,1.21,8.49,4.25,8.49,10.92,0,3.64-.36,6.07-.36,9.71,0,7.28,2.79,8.74,13.71,8.74,5.46,0,11.65-.49,11.65-.49.61,1.21.49,6.68,0,7.28,0,0-5.46,1.34-17.6,1.34-14.56,0-19.54-2.55-19.54-12.62,0-4.85.36-8.49.36-10.92,0-2.67-.24-5.1-1.21-6.92-.97-1.7-3.4-3.4-10.07-3.4-7.04,0-8.13.85-8.62,1.82-.73,1.46-.85,3.64-.85,9.1,0,13.96.97,20.87.97,20.87-1.09.36-10.56.97-13.59.36,0,0,.36-7.89.36-29.73v-1.21c0-28.52-.12-32.77-1.09-34.59-1.58-3.16-4-4.49-55.09-4.85-.61-.24-.61-5.95.12-6.67,29.12.36,58.25.36,74.63.36h.61c18.81,0,28.52,6.92,28.64,21.48,0,12.74-6.07,17.35-11.53,19.42Zm-1.82-6.07c2.06-2.06,2.06-5.7,2.06-12.14,0-4.85-.36-9.1-1.82-11.16-1.21-1.82-3.88-2.79-12.99-2.79-6.67,0-8.25.37-9.47,1.58-1.7,1.7-1.82,7.52-1.82,17.84,0,4.25.24,6.31,1.82,7.89.97.97,2.79,1.58,6.43,1.58,8.13,0,13.59-.61,15.78-2.79Z"/>
  <path class="cls-5" d="m212.44,101.89s.24-5.7.24-35.44c0-19.42-.97-28.15-.97-28.15,1.46-.85,12.14-1.21,14.08-.85,6.67,15.66,16.26,35.31,24.76,51.09.85,1.58,1.34,2.3,2.55,2.3.85,0,1.34-.12,1.46-1.82s.36-7.04.36-13.11c0-16.99-1.7-38.59-1.7-38.59,1.46-.24,7.89-.61,11.53,0,0,0-.49,21.84-.49,51.58,0,19.42.12,24.27.12,24.27-1.21.61-11.77.85-15.29,0-7.65-17.11-14.81-32.16-23.3-49.15-1.21-2.43-1.58-2.79-2.67-2.79-.73,0-1.34.36-1.34,1.94,0,23.91.61,38.23.61,38.23-1.58.49-7.89.85-9.95.49Z"/>
  <path class="cls-5" d="m286.78,56.74c0,6.07.24,10.68.85,11.89.73,1.46,2.79,1.7,13.71,1.7,8.49,0,13.83-.24,13.83-.24.36,2.18.36,4.85.24,7.52l-14.08.24c-8.5.12-10.56.36-11.53,2.31-.61,1.21-.97,4.13-.97,9.59,0,7.89.36,12.86.97,14.08.73,1.46,1.82,1.94,10.32,1.94s15.65-.61,15.65-.61c.24,2.79-.12,7.04-.49,8.62-28.52,0-39.32.24-39.32.24,0,0,1.09-18.81,1.09-35.19,0-26.09-.73-41.5-.73-41.5,0,0,17.47,0,38.47-.61.48,2.91.12,8.49-.12,9.1,0,0-5.46-.36-11.53-.36-11.53,0-14.81.49-15.53,1.94-.73,1.46-.85,3.88-.85,9.34Z"/>
  <path class="cls-5" d="m165.98,127.51c19.42,0,29.73,5.46,29.85,23.66,0,19.42-9.1,21.84-29.37,21.84-3.4,0-4.25.24-5.1,1.09-1.34,1.33-1.34,4.37-1.34,13.47,0,10.31.36,16.63.36,16.63-1.09.61-9.95.61-12.86,0,0,0,.49-12.14.49-30.34v-.85c0-27.31-.12-32.89-1.09-34.83-1.21-2.43-4-3.88-55.09-3.88-.61-.24-.61-5.46.12-6.55,0,0,47.33-.24,73.42-.24h.61Zm15.29,36.16c1.82-1.82,1.82-5.83,1.82-14.32,0-6.07-.48-8.49-1.58-9.95-1.46-1.94-4.49-2.79-12.38-2.79-6.07,0-9.1,0-10.31,1.21-1.34,1.34-1.58,8.37-1.58,18.69,0,4.49,0,6.55,1.21,7.77,1.21,1.21,4,1.46,8.25,1.46,6.68,0,12.5,0,14.56-2.06Z"/>
  <path class="cls-5" d="m248.7,187.83c3.16,9.83,3.64,11.29,21.24,11.29,11.53,0,20.75-1.21,20.75-1.21.61,1.82.49,6.07,0,6.68,0,0-12.14,1.82-26.09,1.82-21.84,0-24.88-1.82-27.43-11.53l-3.16-12.38c-.97-3.64-2.06-3.88-8.98-3.88h-.61c-9.71,0-11.89.73-12.74,4.13-1.82,7.16-3.52,21.84-3.52,21.84-.97.12-1.21.12-2.67.12-4.01,0-9.1-.24-10.8-.73,6.92-23.66,13.35-48.54,19.9-75.85,2.67-.24,6.19-.49,9.47-.49s6.31.24,8.13.49c3.76,15.53,9.47,37.62,14.68,54l1.82,5.7Zm-22.21-39.08c-1.58-6.07-2.18-8.49-3.64-8.49-1.7,0-2.55,3.4-4.13,9.47l-3.28,12.99c-.61,2.55-1.09,4.37-1.09,5.58,0,2.79,1.58,2.91,8.25,2.91h.61c5.46,0,7.89-.12,7.89-3.03,0-1.21-.36-2.43-.97-5.1l-3.64-14.32Z"/>
  <path class="cls-5" d="m275.65,128s-.85,16.26-.85,39.93c0,7.89.36,10.8,1.34,12.74.85,1.7,2.67,2.43,8.37,2.43,7.28,0,13.59-.49,13.59-.49.36,1.09.49,6.8.12,8.37-21.6,0-34.71,1.21-34.71,1.21,0,0,.61-13.71.61-29.49,0-26.7-.73-34.71-.73-34.71,3.4-.61,10.44-.61,12.26,0Z"/>
  <path class="cls-5" d="m465.38,206.39c-14.56.36-29.73.85-30.94.85-1.46,0-2.91-7.4-2.31-11.41,10.31-15.78,20.75-33.61,29.25-49.39.85-1.58,2.06-4.01,2.06-4.98,0-1.21-1.82-1.82-9.71-1.82-13.35,0-20.63,1.34-20.63,1.34-.97-3.15-.73-11.65-.12-12.14,0,0,6.07.12,18.81.12s24.76-.73,24.76-.73c.85,1.46,1.46,6.19,1.34,8.37-11.41,18.93-21.96,36.53-31.67,55.95-.36.73-.85,1.82-.85,2.43,0,2.67,4.73,3.16,33.86,3.16,9.1,0,16.14-.36,16.14-.36.61,0,1.46,6.92,0,8.25,0,0-15.41,0-29.97.36Z"/>
  <path class="cls-5" d="m481.66,192.78c6.8-21.24,12.74-42.96,18.08-64.56,4.25-.61,15.78-.73,19.42-.36,6.43,24.76,13.35,50.48,21.48,75.85-3.64.24-14.93.24-16.26-.61,0,0-3.03-14.2-5.46-21.48-1.21-3.64-2.43-3.88-9.34-3.88h-.61c-8.49,0-8.62.24-9.71,3.52-1.94,5.83-3.4,12.14-3.4,12.14-2.43.36-11.77,0-14.2-.61Zm33.01-46.96c-1.7-6.07-2.43-7.64-4.25-7.64s-2.43,2.43-4.25,9.1l-3.88,14.56c-2.18,8.25-1.82,8.49,7.89,8.49h.97c10.19,0,10.19-.49,8.49-6.67l-4.97-17.84Z"/>
</svg>